<svg xmlns="http://www.w3.org/2000/svg" viewBox="0 0 786.5 786.5">
  <style>
    .st0{fill:#FF6AB7;} .st1{fill:#A26FFF;} .st2{fill:#00CF92;} .st3{fill:#B2FF74;} .st4{fill:#F9FF6F;} .st5{fill:#FFD374;} .st6{fill:#FF655A;}
  </style>
  <path class="st0" d="M759.9 500.9c-4.5-32.3-21.7-86.8-36.8-116-15-29.2-46.8-73.7-69-94.2-22.2-20.5-61.5-48.9-95.6-62.4-34.1-13.5-65.3-15.7-89.8-16.7s-55.2 7.5-71.9 13.1c-16.8 5.5-40.8 18.6-57.6 36.2-16.8 17.6-27.3 30.6-34.1 47.1-6.9 16.5-10.5 34.6-10.3 51 .2 16.4 5 37.7 9 44.5 4 6.9 10.6 16.6 16.1 23 5.5 6.4 11.8 10.7 18 14.3 6.2 3.7 12.7 7.8 20.9 9.7 8.1 1.9 14.7 3.3 23.3 2.1 1.8-.3 3.6-.6 5.3-.9-18.1-1.8-33.8-11.7-43.3-26.1-1.4-1.2-2.8-2.4-4.3-3.8-6.3-6-9.3-12-12.9-19.5-3.6-7.5-4.5-15.2-5.4-22.3-1-7.1-1.6-14.7 0-23s5.1-19.6 7.9-27c2.9-7.4 16.6-24.4 29.2-34.8 12.7-10.4 29.1-18.8 46.3-23.8 17.2-4.9 33.9-4.8 58.1-2.7s49.4 12.8 64.2 22.4c14.8 9.7 40.6 28.3 55.1 48.1s32.2 45.5 42.9 80.6 13.1 83.5 10.8 113.6c-2.2 30.1-17.2 82.7-30.7 112.7s-45.3 77.4-67.8 101.1c-5.8 6.1-12.1 12.4-18.8 18.8C632 727.9 722.2 639.7 762.9 527.7c-.8-9.3-1.8-18.4-3-26.8z"/>
  <path class="st1" d="M728.8 188.1c-7.9-5.2-15.6-10.2-23-14.5-28.1-16.6-81.4-37.2-113.6-43.6s-86.8-9.3-116.7-4.8c-29.9 4.5-76.5 17.6-108.4 35.8-31.8 18.2-53 41.3-69.1 59.8-16 18.5-28.5 47.8-34.6 64.4-6.1 16.6-10.9 43.4-7.6 67.5 3.3 24.1 6.9 40.4 15.5 56 8.6 15.7 20.5 29.8 33.5 39.8 12.9 10 32.6 20.3 40.4 21.4 7.9 1.2 19.6 2.3 28.1 2 8.5-.3 15.7-2.6 22.4-5.1 6.7-2.5 14.7-5.3 21.2-10.5s11.8-9.4 16.2-16.9c1.3-2.2 2.5-4.4 3.5-6.7-10.7 11.8-26.2 19.2-43.4 19.2-2 0-3.9-.1-5.8-.3-1.7.4-3.5.7-5.4.9-8.6 1.2-15.2-.2-23.3-2.1-8.1-1.9-14.7-6-20.9-9.7-6.2-3.7-12.5-7.9-18-14.3s-12.1-16.2-16.1-23c-4-6.9-8.8-28.2-9-44.6-.2-16.4 3.4-34.5 10.3-51s17.4-29.5 34.1-47.1c16.8-17.6 40.8-30.6 57.6-36.2 16.8-5.5 47.5-14.1 71.9-13.1 24.5 1 55.7 3.2 89.8 16.7 34.1 13.5 73.4 41.9 95.6 62.4 22.2 20.6 53.9 65 69 94.2 15 29.2 32.2 83.7 36.7 116 1.2 8.5 2.2 17.6 3 27 15.3-42 23.7-87.4 23.7-134.8.1-74.8-21-145-57.6-204.8z"/>
  <path class="st2" d="M443 3.1c-9.2 2.9-18.1 6-26.2 9.1-30.5 11.6-79.8 40.5-104.9 61.7s-61.6 61.8-76.7 88c-15.1 26.2-34.2 71-39.8 107.3-5.6 36.3-.8 67.2 3.7 91.2 4.5 24.1 19.6 52.1 28.7 67.2 9.1 15.1 27.2 36.1 48.1 48.5 20.9 12.4 35.9 19.8 53.5 22.8s36.5 2.1 52.4-1.8c15.9-3.8 35.6-13.2 41.4-18.7 5.8-5.4 13.8-14 18.9-20.9 5-6.8 7.8-13.9 10-20.7 2.2-6.8 4.8-14.1 4.8-22.5s0-15.1-3.1-23.2c-.7-1.9-1.4-3.6-2.2-5.3.3 2.4.5 4.8.5 7.3 0 15.4-5.9 29.3-15.6 39.8-1 2.1-2.1 4.1-3.3 6.2-4.4 7.5-9.6 11.7-16.2 16.9-6.5 5.2-13.9 7.7-20.6 10.3-6.7 2.5-13.9 4.8-22.4 5.1-8.5.3-20.2-.6-28.1-1.7-7.9-1.2-27.5-10.7-40.4-20.8-12.9-10-24.8-24.2-33.5-39.8-8.6-15.7-12.2-32-15.5-56-3.3-24.1 1.5-51 7.6-67.5s18.6-45.9 34.6-64.4 37.2-41.5 69.1-59.8c31.8-18.2 78.5-31.3 108.4-35.8 29.9-4.5 84.5-1.6 116.7 4.8s85.5 27 113.6 43.6c7.2 4.3 14.9 9.1 22.6 14.2-61-99.4-165-169.8-286.1-185.1z"/>
  <path class="st3" d="M478.8 423.5c-.6-7.9-2.4-19.6-4.5-27.8-2.2-8.2-6.2-15.4-10.2-21.4-4-6-8.1-12.5-14.6-17.8-6.5-5.2-12-9.4-20.3-12-1.8-.6-3.6-1.1-5.4-1.5 15.2 9.3 25.9 25.4 27.9 44 .6 1.4 1.2 2.8 1.7 4.3 3.1 8.1 3.1 14.8 3.1 23.2 0 8.4-2.6 15.7-4.8 22.5-2.2 6.8-4.9 13.9-10 20.7-5 6.8-13.1 15.4-18.9 20.9-5.8 5.4-25.5 14.8-41.4 18.7-15.9 3.8-34.4 4.3-52 1.3s-32.6-10.4-53.5-22.8-38.9-32.9-48.1-48.1c-9.1-15.1-24.3-43.2-28.7-67.2s-9.3-55-3.7-91.2c5.6-36.3 24.5-80.9 39.6-107.1 15.1-26.2 51.4-67.1 76.5-88.2s74.5-50.1 105-61.7c8.3-3.1 17.3-6.2 26.6-9.2C426.8 1 410.1 0 393.3 0c-107 0-203.9 42.7-274.8 111.9-3.4 8.9-6.5 17.7-9.1 25.9-10 31.1-18.1 87.6-17.2 120.5.9 32.8 10.2 86.7 21.3 114.8s34.2 70.7 59 97.7c24.8 27 52 42.5 73.6 54s53 17.2 70.5 19.4c17.5 2.3 44.8 1 67.5-7.6 22.8-8.6 37.8-15.7 51.2-27.6s24.9-26.2 31.8-41c6.9-14.8 12.3-36.5 11.7-44.5z"/>
  <path class="st4" d="M509.9 432.6c-1-17.9-5.6-35.7-12.9-50.4-7.3-14.6-20.8-31.8-27.4-36.2-6.6-4.5-16.8-10.6-24.5-14-7.8-3.4-15.3-4.9-22.4-5.5-7.1-.6-15.1-1.3-23.2.5s-14.9 3.4-22.1 8.2c-1.4 1-2.8 1.9-4.1 2.9 6.2-2.3 13-3.5 20-3.5 11.6 0 22.5 3.4 31.6 9.2 1.4.4 2.9.8 4.3 1.3 8.3 2.6 13.6 6.8 20.1 12 6.5 5.2 10.6 11.8 14.6 17.8s7.8 12.5 10 20.7 3.9 19.8 4.5 27.8c.6 7.9-4.3 29.2-11.2 44-6.9 14.8-18 29.6-31.4 41.5-13.3 11.9-28.4 19-51.2 27.6-22.8 8.6-50 9.9-67.5 7.6s-48.9-7.9-70.5-19.4-48.8-27-73.6-54c-24.8-27-48-69.6-59-97.7s-20.4-82-21.3-114.8c-.9-32.8 7.3-89.4 17.2-120.5 2.7-8.3 5.8-17.2 9.3-26.3C45.6 182.8 0 282.7 0 393.2c0 13.3.7 26.5 2 39.5 4.8 8.2 9.7 16 14.5 23.2 18.1 27.1 57.2 68.8 83.4 88.6 26.2 19.8 74.2 46.1 103 55 28.9 8.9 76.6 17.3 113.2 14.7 36.6-2.6 65.7-14.2 88.1-23.9 22.5-9.7 46.4-30.7 59.1-43 12.7-12.3 28.7-34.4 36.2-57.6 7.6-23 11.4-39.3 10.4-57.1z"/>
  <path class="st5" d="M556.9 434.6c-1.7-17.6-9-43.9-22.4-64.2-13.4-20.3-23.7-33.4-38.3-43.8-14.6-10.4-31.4-17.9-47.4-21.4-16-3.4-37.8-3.5-45.4-1.2-7.6 2.4-18.5 6.7-26 10.6-7.5 3.9-13 9.2-18 14.3-4.9 5.2-10.4 10.7-14.1 18.2-3.6 7.5-6.7 13.6-7.5 22.2-.2 1.9-.3 3.7-.3 5.4 5.7-17.3 19.1-31.1 36.2-37.1 1.2-.9 2.4-1.8 3.7-2.6 7.2-4.8 13.8-6.4 21.9-8.2 8.1-1.8 15.9-1.2 23-.5 7.1.6 14.7 1.9 22.4 5.3s17.9 9.3 24.5 13.7c6.6 4.5 20.1 21.6 27.4 36.2 7.3 14.6 11.9 32.5 12.9 50.4s-2.8 34.1-10.3 57.2c-7.5 23.1-23.4 45.3-36.2 57.6-12.7 12.3-36.7 33.3-59.1 43-22.5 9.7-51.5 21.3-88.1 23.9-36.6 2.6-84.3-5.8-113.2-14.7-28.9-8.9-76.8-35.2-103-55-26.2-19.8-64.7-61.4-82.8-88.6-4.9-7.3-9.9-15.4-14.9-23.9 12 123 80.6 229.5 179.5 292.8 8.8 1.2 17.4 2.3 25.4 2.9 32.5 2.8 89.9-1.9 121.7-10 31.8-8.2 82.2-29.3 107.2-46.3 25-17 60.9-49.5 81.7-79.7s29.8-60.2 36.3-83.8c6.4-23.2 4.9-55.1 3.2-72.7z"/>
  <path class="st6" d="M625.6 420.3c-10.7-35.1-28.4-60.9-42.9-80.6-14.5-19.8-40.3-38.4-55.1-48.1-14.8-9.7-39.9-20.7-64.2-22.9s-41.3-2.3-58.5 2.7c-17.2 4.9-33.6 13.4-46.3 23.8-12.7 10.4-26.4 27.4-29.2 34.8-2.9 7.4-6.4 19.1-7.9 27.4-1.6 8.3-1 15.9 0 23s1.8 14.8 5.4 22.3c3.6 7.5 7 13.6 13.3 19.5 1.4 1.3 2.7 2.5 4.1 3.7-6.2-9.3-9.9-20.5-9.9-32.6 0-6.8 1.2-13.2 3.3-19.3.1-1.3.1-2.7.3-4 .7-8.6 3.6-14.7 7.2-22.2s9.1-13 14.1-18.2c4.9-5.2 10.5-10.4 18-14.3 7.5-3.9 18.4-8.2 26-10.6 7.6-2.4 29.4-2.3 45.4 1.2 16 3.4 32.8 11 47.4 21.4 14.6 10.4 24.9 23.5 38.3 43.8 13.4 20.3 20.8 46.6 22.4 64.2 1.7 17.6 3.2 49.4-3.3 73-6.4 23.6-15.5 53.6-36.3 83.8-20.8 30.2-57.6 62.3-82.5 79.3-25 17-75.4 37.9-107.2 46.1-31.8 8.2-88.3 12.6-120.8 9.8-8.3-.7-17.3-1.7-26.4-3 61.3 39.6 134.4 62.5 212.8 62.5 44.4 0 87-7.3 126.8-20.9 6.4-6.1 12.5-12.2 18-18 22.4-23.7 54.3-71.1 67.8-101.1s28.4-82.5 30.7-112.7c2.3-30.4-.1-78.7-10.8-113.8z"/>
</svg>
